<svg width="96" height="24" viewBox="0 0 96 24" fill="none" xmlns="http://www.w3.org/2000/svg">
<g filter="url(#filter0_d_1_22157)">
<path d="M5.18364 2.57854V0.256539H9.52164V13.3785H6.92964V2.57854H5.18364ZM12.0111 6.64654C12.0111 4.57054 12.3831 2.94454 13.1271 1.76854C13.8831 0.592539 15.1311 0.00453949 16.8711 0.00453949C18.6111 0.00453949 19.8531 0.592539 20.5971 1.76854C21.3531 2.94454 21.7311 4.57054 21.7311 6.64654C21.7311 8.73454 21.3531 10.3725 20.5971 11.5605C19.8531 12.7485 18.6111 13.3425 16.8711 13.3425C15.1311 13.3425 13.8831 12.7485 13.1271 11.5605C12.3831 10.3725 12.0111 8.73454 12.0111 6.64654ZM19.2471 6.64654C19.2471 5.75854 19.1871 5.01454 19.0671 4.41454C18.9591 3.80254 18.7311 3.30454 18.3831 2.92054C18.0471 2.53654 17.5431 2.34454 16.8711 2.34454C16.1991 2.34454 15.6891 2.53654 15.3411 2.92054C15.0051 3.30454 14.7771 3.80254 14.6571 4.41454C14.5491 5.01454 14.4951 5.75854 14.4951 6.64654C14.4951 7.55854 14.5491 8.32654 14.6571 8.95054C14.7651 9.56254 14.9931 10.0605 15.3411 10.4445C15.6891 10.8165 16.1991 11.0025 16.8711 11.0025C17.5431 11.0025 18.0531 10.8165 18.4011 10.4445C18.7491 10.0605 18.9771 9.56254 19.0851 8.95054C19.1931 8.32654 19.2471 7.55854 19.2471 6.64654ZM33.3498 8.06854H29.9478V11.5605H27.5718V8.06854H24.1698V5.87254H27.5718V2.38054H29.9478V5.87254H33.3498V8.06854ZM50.3438 0.81454L46.0958 9.00454V13.3785H43.5758V9.00454L39.3098 0.81454H42.1538L44.8538 6.55654L47.5358 0.81454H50.3438ZM61.0672 8.17654C61.0672 8.53654 61.0432 8.86054 60.9952 9.14854H53.7052C53.7652 9.86854 54.0172 10.4325 54.4612 10.8405C54.9052 11.2485 55.4512 11.4525 56.0992 11.4525C57.0352 11.4525 57.7012 11.0505 58.0972 10.2465H60.8152C60.5272 11.2065 59.9752 11.9985 59.1592 12.6225C58.3432 13.2345 57.3412 13.5405 56.1532 13.5405C55.1932 13.5405 54.3292 13.3305 53.5612 12.9105C52.8052 12.4785 52.2112 11.8725 51.7792 11.0925C51.3592 10.3125 51.1492 9.41254 51.1492 8.39254C51.1492 7.36054 51.3592 6.45454 51.7792 5.67454C52.1992 4.89454 52.7872 4.29454 53.5432 3.87454C54.2992 3.45454 55.1692 3.24454 56.1532 3.24454C57.1012 3.24454 57.9472 3.44854 58.6912 3.85654C59.4472 4.26454 60.0292 4.84654 60.4372 5.60254C60.8572 6.34654 61.0672 7.20454 61.0672 8.17654ZM58.4572 7.45654C58.4452 6.80854 58.2112 6.29254 57.7552 5.90854C57.2992 5.51254 56.7412 5.31454 56.0812 5.31454C55.4572 5.31454 54.9292 5.50654 54.4972 5.89054C54.0772 6.26254 53.8192 6.78454 53.7232 7.45654H58.4572ZM62.2586 8.35654C62.2586 7.34854 62.4566 6.45454 62.8526 5.67454C63.2606 4.89454 63.8066 4.29454 64.4906 3.87454C65.1866 3.45454 65.9606 3.24454 66.8126 3.24454C67.5566 3.24454 68.2046 3.39454 68.7566 3.69454C69.3206 3.99454 69.7706 4.37254 70.1066 4.82854V3.40654H72.6446V13.3785H70.1066V11.9205C69.7826 12.3885 69.3326 12.7785 68.7566 13.0905C68.1926 13.3905 67.5386 13.5405 66.7946 13.5405C65.9546 13.5405 65.1866 13.3245 64.4906 12.8925C63.8066 12.4605 63.2606 11.8545 62.8526 11.0745C62.4566 10.2825 62.2586 9.37654 62.2586 8.35654ZM70.1066 8.39254C70.1066 7.78054 69.9866 7.25854 69.7466 6.82654C69.5066 6.38254 69.1826 6.04654 68.7746 5.81854C68.3666 5.57854 67.9286 5.45854 67.4606 5.45854C66.9926 5.45854 66.5606 5.57254 66.1646 5.80054C65.7686 6.02854 65.4446 6.36454 65.1926 6.80854C64.9526 7.24054 64.8326 7.75654 64.8326 8.35654C64.8326 8.95654 64.9526 9.48454 65.1926 9.94054C65.4446 10.3845 65.7686 10.7265 66.1646 10.9665C66.5726 11.2065 67.0046 11.3265 67.4606 11.3265C67.9286 11.3265 68.3666 11.2125 68.7746 10.9845C69.1826 10.7445 69.5066 10.4085 69.7466 9.97654C69.9866 9.53254 70.1066 9.00454 70.1066 8.39254ZM77.6258 4.95454C77.9498 4.42654 78.3698 4.01254 78.8858 3.71254C79.4138 3.41254 80.0138 3.26254 80.6858 3.26254V5.90854H80.0198C79.2278 5.90854 78.6278 6.09454 78.2198 6.46654C77.8238 6.83854 77.6258 7.48654 77.6258 8.41054V13.3785H75.1058V3.40654H77.6258V4.95454ZM86.1991 13.5405C85.3831 13.5405 84.6511 13.3965 84.0031 13.1085C83.3551 12.8085 82.8391 12.4065 82.4551 11.9025C82.0831 11.3985 81.8791 10.8405 81.8431 10.2285H84.3811C84.4291 10.6125 84.6151 10.9305 84.9391 11.1825C85.2751 11.4345 85.6891 11.5605 86.1811 11.5605C86.6611 11.5605 87.0331 11.4645 87.2971 11.2725C87.5731 11.0805 87.7111 10.8345 87.7111 10.5345C87.7111 10.2105 87.5431 9.97054 87.2071 9.81454C86.8831 9.64654 86.3611 9.46654 85.6411 9.27454C84.8971 9.09454 84.2851 8.90854 83.8051 8.71654C83.3371 8.52454 82.9291 8.23054 82.5811 7.83454C82.2451 7.43854 82.0771 6.90454 82.0771 6.23254C82.0771 5.68054 82.2331 5.17654 82.5451 4.72054C82.8691 4.26454 83.3251 3.90454 83.9131 3.64054C84.5131 3.37654 85.2151 3.24454 86.0191 3.24454C87.2071 3.24454 88.1551 3.54454 88.8631 4.14454C89.5711 4.73254 89.9611 5.53054 90.0331 6.53854H87.6211C87.5851 6.14254 87.4171 5.83054 87.1171 5.60254C86.8291 5.36254 86.4391 5.24254 85.9471 5.24254C85.4911 5.24254 85.1371 5.32654 84.8851 5.49454C84.6451 5.66254 84.5251 5.89654 84.5251 6.19654C84.5251 6.53254 84.6931 6.79054 85.0291 6.97054C85.3651 7.13854 85.8871 7.31254 86.5951 7.49254C87.3151 7.67254 87.9091 7.85854 88.3771 8.05054C88.8451 8.24254 89.2471 8.54254 89.5831 8.95054C89.9311 9.34654 90.1111 9.87454 90.1231 10.5345C90.1231 11.1105 89.9611 11.6265 89.6371 12.0825C89.3251 12.5385 88.8691 12.8985 88.2691 13.1625C87.6811 13.4145 86.9911 13.5405 86.1991 13.5405Z" fill="white"/>
</g>
<defs>
<filter id="filter0_d_1_22157" x="0.240736" y="0.00454712" width="94.8252" height="23.4217" filterUnits="userSpaceOnUse" color-interpolation-filters="sRGB">
<feFlood flood-opacity="0" result="BackgroundImageFix"/>
<feColorMatrix in="SourceAlpha" type="matrix" values="0 0 0 0 0 0 0 0 0 0 0 0 0 0 0 0 0 0 127 0" result="hardAlpha"/>
<feOffset dy="4.94286"/>
<feGaussianBlur stdDeviation="2.47143"/>
<feComposite in2="hardAlpha" operator="out"/>
<feColorMatrix type="matrix" values="0 0 0 0 0 0 0 0 0 0 0 0 0 0 0 0 0 0 0.3 0"/>
<feBlend mode="normal" in2="BackgroundImageFix" result="effect1_dropShadow_1_22157"/>
<feBlend mode="normal" in="SourceGraphic" in2="effect1_dropShadow_1_22157" result="shape"/>
</filter>
</defs>
</svg>
